<svg xmlns="http://www.w3.org/2000/svg" viewBox="0 0 37.8 43" style="enable-background:new 0 0 37.8 43" xml:space="preserve"><path d="M15 27.7c-.2-.4-.7-.6-1.1-.6-8.1.9-13.3 3.6-13.3 7 0 4.8 9.4 7.3 18.3 7.3s18.3-2.6 18.3-7.3c0-3.4-5.2-6.2-13.3-7-.5 0-.9.2-1.1.6" style="fill:none;stroke:#fff;stroke-miterlimit:10"/><path d="M18.9 1.6c-6.2 0-11.3 5-11.3 11.3 0 2.4.7 4.6 2.1 6.6l8.3 13c.3.5.9.6 1.4.3l.3-.3L28 19.4c3.6-5.1 2.4-12.1-2.7-15.7-1.8-1.4-4.1-2.1-6.4-2.1zm0 16.4c-2.8 0-5.1-2.3-5.1-5.1s2.3-5.1 5.1-5.1 5.1 2.2 5.1 5-2.3 5.2-5.1 5.2z" style="fill:#fff"/></svg>
